<svg version="1.1" xmlns="http://www.w3.org/2000/svg" viewBox="-238.5919982910156 -1075.2000610351563 3833.856298828125 1388.54404296875"><desc>Created with Snap</desc><defs></defs><g><g><g transform="matrix(1.024,0,0,-1.024,0,0)"><path d="M67 0L321 687Q245 662 203 604Q162 547 162 462Q162 424 169 410Q176 396 176 393Q69 393 69 484Q69 546 116 608Q164 671 238 710Q313 750 387 750Q424 750 463 736L440 209L660 736L804 736L699 0L555 0L619 449L431 0L294 0L314 451L147 0L67 0ZM1074 -6Q990 -6 942 42Q895 90 895 195Q895 284 927 395Q959 506 1020 585Q1082 664 1166 664Q1196 664 1218 656Q1174 630 1133 549Q1093 468 1068 368Q1043 268 1043 191Q1043 137 1057 106Q1071 75 1101 75Q1150 75 1198 145Q1247 216 1278 323Q1310 430 1310 529Q1310 591 1299 628Q1289 666 1261 685Q1233 704 1182 704Q1105 704 1039 672Q973 641 933 582Q894 524 894 447Q894 420 899 407Q904 395 904 393Q854 393 828 413Q803 433 803 477Q803 546 859 609Q916 672 1009 711Q1103 750 1206 750Q1331 750 1387 682Q1443 614 1443 494Q1443 387 1403 271Q1363 155 1279 74Q1196 -6 1074 -6ZM1552 0L1697 680Q1630 652 1593 596Q1557 540 1557 461Q1557 424 1564 409Q1571 395 1571 393Q1517 393 1490 415Q1464 438 1464 490Q1464 554 1516 614Q1569 675 1651 712Q1733 750 1815 750Q1829 750 1855 748L1791 450L1938 450L2002 748L2146 748L1987 0L1843 0L1923 376L1776 376L1696 0L1552 0ZM2211 0L2356 679Q2289 652 2252 596Q2216 541 2216 461Q2216 424 2223 409Q2230 395 2230 393Q2176 393 2149 415Q2123 438 2123 490Q2123 554 2175 614Q2228 675 2310 712Q2392 750 2474 750Q2488 750 2514 748L2355 0L2211 0ZM2649 0L2791 662L2779 662Q2690 662 2640 617Q2591 573 2591 460Q2591 423 2598 408Q2605 394 2605 392Q2551 392 2524 414Q2498 437 2498 489Q2498 560 2533 618Q2568 677 2644 713Q2721 749 2839 749Q2905 749 2981 737Q3045 726 3095 726Q3159 726 3211 747Q3209 682 3178 651Q3147 620 3086 620Q3054 620 3022 625Q2990 630 2931 642L2793 0L2649 0Z" fill="#4a274f" style=""></path></g></g></g></svg>